<svg width="24" height="24" viewBox="0 0 24 24" fill="none" xmlns="http://www.w3.org/2000/svg">
<path d="M23.8206 11.4148C23.5628 11.1203 23.1124 11.0933 22.8179 11.3532L20.7239 13.207L14.8089 18.4409C14.4361 18.7697 13.9615 18.9462 13.4737 18.9462C13.3316 18.9462 13.1895 18.9323 13.0467 18.9023L9.66586 18.153L5.58333 17.2521L2.7203 16.6186L2.31089 16.527C2.18123 16.483 2.06625 16.4259 1.96519 16.3505C1.80258 16.2325 1.67367 16.0795 1.58508 15.9037C1.49423 15.7272 1.44666 15.5309 1.44666 15.3309C1.44666 15.2086 1.46719 15.0804 1.5038 14.9552C1.54847 14.8197 1.61222 14.6974 1.69055 14.589C1.80553 14.4264 1.96153 14.2974 2.13731 14.2096C2.31089 14.118 2.50645 14.0711 2.70713 14.0711C2.74083 14.0711 2.77453 14.0741 2.80819 14.0741L5.75911 14.7113L12.6029 16.1915C13.4503 16.3776 14.3343 16.1476 14.9847 15.5719L19.1925 11.8651L23.4889 8.08069C23.8748 7.73865 24.0375 7.20985 23.9056 6.71251C23.7767 6.2108 23.3768 5.82774 22.8722 5.71932L22.3368 5.60433L18.4337 4.76058L13.4905 3.69357C12.6438 3.50752 11.7598 3.73754 11.1087 4.31391L4.50591 10.114L2.52033 11.8586L0.792516 13.3762C0.721453 13.4574 0.660656 13.5388 0.606469 13.6267C0.575719 13.664 0.548625 13.6977 0.521484 13.7387C0.352313 13.9695 0.216797 14.2331 0.12525 14.5217C0.0402656 14.789 0 15.0637 0 15.331C0 15.9104 0.186047 16.4626 0.514875 16.9167C0.680391 17.1474 0.880359 17.3503 1.11473 17.5195C1.3447 17.6894 1.60913 17.8249 1.89698 17.9128L1.92773 17.9231L4.93945 18.5837L7.79222 19.207L12.7456 20.291C12.9858 20.3452 13.2297 20.3694 13.4736 20.3694C14.3034 20.3694 15.1135 20.0713 15.7507 19.5117L15.9199 19.363L21.8012 14.1555L23.7597 12.4211C24.0542 12.1596 24.0813 11.7099 23.8206 11.4148Z" fill="#FF8F1F"/>
</svg>
